<svg width="180" height="48" fill="none" xmlns="http://www.w3.org/2000/svg"><path d="M0 2.977a2.977 2.977 0 015.954 0v18.854a2.977 2.977 0 01-5.954 0V2.977z" fill="#232323"/><path fill-rule="evenodd" clip-rule="evenodd" d="M23.816 41.678c9.865 0 17.862-7.997 17.862-17.862 0-9.865-7.997-17.862-17.862-17.862-9.865 0-17.862 7.997-17.862 17.862 0 9.865 7.997 17.862 17.862 17.862zm0 5.954c13.153 0 23.816-10.663 23.816-23.816C47.632 10.663 36.97 0 23.816 0 10.663 0 0 10.663 0 23.816 0 36.97 10.663 47.632 23.816 47.632z" fill="#232323"/><path d="M47.128 42.918a2.977 2.977 0 01-4.21 4.21l-6.365-6.365a2.977 2.977 0 014.21-4.21l6.365 6.365zM31.755 23.816a7.939 7.939 0 11-15.878 0 7.939 7.939 0 0115.878 0z" fill="#232323"/><path d="M69.664 12.632h4.864V35h-4.864V12.632zM89.819 35c-2.518 0-4.726-.448-6.624-1.344-1.899-.917-3.37-2.219-4.416-3.904-1.024-1.707-1.536-3.701-1.536-5.984s.522-4.299 1.568-6.048a10.705 10.705 0 014.288-4.096c1.834-.981 3.872-1.472 6.112-1.472s4.256.49 6.048 1.472a10.706 10.706 0 014.288 4.096c1.045 1.75 1.568 3.765 1.568 6.048 0 1.408-.331 2.773-.992 4.096-.64 1.323-1.45 2.379-2.432 3.168h3.904V35H89.819zm-.608-4.256c1.344 0 2.538-.267 3.584-.8a6.064 6.064 0 002.464-2.4c.597-1.067.896-2.315.896-3.744 0-1.43-.31-2.677-.928-3.744a6.116 6.116 0 00-2.496-2.496c-1.046-.576-2.219-.864-3.52-.864-1.323 0-2.518.288-3.584.864-1.046.576-1.878 1.408-2.496 2.496-.619 1.067-.928 2.315-.928 3.744 0 2.176.64 3.883 1.92 5.12 1.301 1.216 2.997 1.824 5.088 1.824zm31.047-14.048h-6.528v-4.064h17.92v4.064h-6.528V35h-4.864V16.696zm22.363 18.784c-2.944 0-5.259-.704-6.944-2.112-1.685-1.43-2.528-3.424-2.528-5.984 0-2.539.747-4.544 2.24-6.016 1.515-1.472 3.669-2.208 6.464-2.208 1.835 0 3.392.341 4.672 1.024 1.28.683 2.251 1.632 2.912 2.848.661 1.195.992 2.55.992 4.064v1.952h-12.672c.341 1.963 2.176 2.944 5.504 2.944.981 0 1.995-.085 3.04-.256 1.045-.17 1.952-.405 2.72-.704v3.392c-.747.32-1.707.576-2.88.768a21.763 21.763 0 01-3.52.288zm3.232-9.568c-.064-1.024-.448-1.813-1.152-2.368-.704-.576-1.675-.864-2.912-.864-1.216 0-2.176.288-2.88.864-.704.576-1.088 1.365-1.152 2.368h8.096zm13.553 9.568c-1.152 0-2.39-.128-3.712-.384-1.302-.235-2.326-.576-3.072-1.024v-3.776c.853.512 1.877.928 3.072 1.248 1.194.32 2.304.48 3.328.48.874 0 1.514-.075 1.92-.224.405-.15.608-.427.608-.832a.944.944 0 00-.352-.768c-.235-.213-.598-.395-1.088-.544-.47-.17-1.259-.416-2.368-.736-1.302-.384-2.326-.768-3.072-1.152-.726-.405-1.28-.907-1.664-1.504-.363-.597-.544-1.365-.544-2.304 0-1.6.629-2.795 1.888-3.584 1.28-.81 3.008-1.216 5.184-1.216 1.066 0 2.165.117 3.296.352 1.152.213 2.037.501 2.656.864v3.68c-.619-.405-1.43-.736-2.432-.992a11.391 11.391 0 00-2.88-.384c-.875 0-1.558.085-2.048.256-.47.17-.704.49-.704.96 0 .405.224.715.672.928.469.213 1.333.48 2.592.8l.64.16c1.344.363 2.389.768 3.136 1.216.746.427 1.269.95 1.568 1.568.32.597.48 1.355.48 2.272 0 1.408-.608 2.539-1.824 3.392-1.216.832-2.976 1.248-5.28 1.248zm15.784 0c-1.792 0-3.158-.49-4.096-1.472-.918-1.003-1.376-2.39-1.376-4.16v-6.72h-2.24V19.64h2.24v-4.608h4.832v4.608h3.616v3.488h-3.616v6.08c0 .896.17 1.547.512 1.952.341.384.949.576 1.824.576.704 0 1.376-.17 2.016-.512v3.616c-.982.427-2.219.64-3.712.64z" fill="#272838"/><path d="M69.664 12.632h4.864V35h-4.864V12.632zM89.819 35c-2.518 0-4.726-.448-6.624-1.344-1.899-.917-3.37-2.219-4.416-3.904-1.024-1.707-1.536-3.701-1.536-5.984s.522-4.299 1.568-6.048a10.705 10.705 0 014.288-4.096c1.834-.981 3.872-1.472 6.112-1.472s4.256.49 6.048 1.472a10.706 10.706 0 014.288 4.096c1.045 1.75 1.568 3.765 1.568 6.048 0 1.408-.331 2.773-.992 4.096-.64 1.323-1.45 2.379-2.432 3.168h3.904V35H89.819zm-.608-4.256c1.344 0 2.538-.267 3.584-.8a6.064 6.064 0 002.464-2.4c.597-1.067.896-2.315.896-3.744 0-1.43-.31-2.677-.928-3.744a6.116 6.116 0 00-2.496-2.496c-1.046-.576-2.219-.864-3.52-.864-1.323 0-2.518.288-3.584.864-1.046.576-1.878 1.408-2.496 2.496-.619 1.067-.928 2.315-.928 3.744 0 2.176.64 3.883 1.92 5.12 1.301 1.216 2.997 1.824 5.088 1.824zm31.047-14.048h-6.528v-4.064h17.92v4.064h-6.528V35h-4.864V16.696zm22.363 18.784c-2.944 0-5.259-.704-6.944-2.112-1.685-1.43-2.528-3.424-2.528-5.984 0-2.539.747-4.544 2.24-6.016 1.515-1.472 3.669-2.208 6.464-2.208 1.835 0 3.392.341 4.672 1.024 1.28.683 2.251 1.632 2.912 2.848.661 1.195.992 2.55.992 4.064v1.952h-12.672c.341 1.963 2.176 2.944 5.504 2.944.981 0 1.995-.085 3.04-.256 1.045-.17 1.952-.405 2.72-.704v3.392c-.747.32-1.707.576-2.88.768a21.763 21.763 0 01-3.52.288zm3.232-9.568c-.064-1.024-.448-1.813-1.152-2.368-.704-.576-1.675-.864-2.912-.864-1.216 0-2.176.288-2.88.864-.704.576-1.088 1.365-1.152 2.368h8.096zm13.553 9.568c-1.152 0-2.39-.128-3.712-.384-1.302-.235-2.326-.576-3.072-1.024v-3.776c.853.512 1.877.928 3.072 1.248 1.194.32 2.304.48 3.328.48.874 0 1.514-.075 1.92-.224.405-.15.608-.427.608-.832a.944.944 0 00-.352-.768c-.235-.213-.598-.395-1.088-.544-.47-.17-1.259-.416-2.368-.736-1.302-.384-2.326-.768-3.072-1.152-.726-.405-1.28-.907-1.664-1.504-.363-.597-.544-1.365-.544-2.304 0-1.6.629-2.795 1.888-3.584 1.28-.81 3.008-1.216 5.184-1.216 1.066 0 2.165.117 3.296.352 1.152.213 2.037.501 2.656.864v3.68c-.619-.405-1.43-.736-2.432-.992a11.391 11.391 0 00-2.88-.384c-.875 0-1.558.085-2.048.256-.47.17-.704.49-.704.96 0 .405.224.715.672.928.469.213 1.333.48 2.592.8l.64.16c1.344.363 2.389.768 3.136 1.216.746.427 1.269.95 1.568 1.568.32.597.48 1.355.48 2.272 0 1.408-.608 2.539-1.824 3.392-1.216.832-2.976 1.248-5.28 1.248zm15.784 0c-1.792 0-3.158-.49-4.096-1.472-.918-1.003-1.376-2.39-1.376-4.16v-6.72h-2.24V19.64h2.24v-4.608h4.832v4.608h3.616v3.488h-3.616v6.08c0 .896.17 1.547.512 1.952.341.384.949.576 1.824.576.704 0 1.376-.17 2.016-.512v3.616c-.982.427-2.219.64-3.712.64z" fill="#000" fill-opacity=".2"/></svg>