<svg width="62" height="66" fill="none" xmlns="http://www.w3.org/2000/svg"><path d="M59.969.375H8.78c-.776 0-1.406.63-1.406 1.406V64.22c0 .776.63 1.406 1.406 1.406h51.19c.776 0 1.406-.63 1.406-1.406V1.78c0-.776-.63-1.406-1.406-1.406z" fill="#F1F1F1"/><path d="M51.25 60v-3.375H.625V60a5.625 5.625 0 005.625 5.625h50.625A5.625 5.625 0 0151.25 60z" fill="#D4D4D4"/><path d="M15.25 10.5H31v7.875H15.25V10.5z" fill="#D7263D"/><path d="M23.125 6l-11.25 4.5 11.25 4.5 9-3.6V15h2.25v-4.5L23.125 6z" fill="#E56374"/><path d="M37.75 6H58v2.25H37.75V6zm0 5.625H58v2.25H37.75v-2.25zm0 5.625H58v2.25H37.75v-2.25zm-9 6.75H58v2.25H28.75V24zm-18 0H26.5v2.25H10.75V24zm9 5.625h23.625v2.25H19.75v-2.25zm25.875 0H58v2.25H45.625v-2.25zm-20.25 5.625h9v2.25h-9v-2.25zm11.25 0H58v2.25H36.625v-2.25z" fill="#D4D4D4"/><path d="M11 42h46v9H11v-9z" fill="#F1BE08"/></svg>