<svg width="72" height="72" fill="none" xmlns="http://www.w3.org/2000/svg"><path d="M27.348 16.175l-.013 4.966v.05c-.012.384-.025.769-.025 1.154 0 .385.013.77.025 1.154l-.025 14.512v25.92a8.704 8.704 0 01-.161 1.626 7.63 7.63 0 01-.584 1.75c-.078.189-.17.371-.273.547a4.69 4.69 0 01-.422.67 7.229 7.229 0 01-1.018 1.204v.013a8.08 8.08 0 01-13.059-2.707 6.828 6.828 0 01-6.827-6.827 6.629 6.629 0 01.77-3.128A6.207 6.207 0 010 50.897c0-1.048.269-2.079.782-2.992a5.941 5.941 0 011.564-1.862c-.062-.062-.112-.124-.174-.187a8.069 8.069 0 01.584-11.581 7.448 7.448 0 016.877-9.435 5.565 5.565 0 01-.856-2.135 5.057 5.057 0 01-.087-.98 5.561 5.561 0 013.687-5.24l.012-.012a42.814 42.814 0 013.823-2.532c4.358-2.558 7.002-2.769 8.616-2.073a4.624 4.624 0 012.482 3.873c.025.273.038.434.038.434z" fill="#FFF4B6"/><path d="M48.886 57.079a6.63 6.63 0 01.77 3.128 6.828 6.828 0 01-6.828 6.827 8.069 8.069 0 01-15.518-3.103v-25.92l.025-14.512a22.05 22.05 0 002.458 9.1 22.353 22.353 0 0019.862 12.09c.273 0 .534 0 .807-.012a6.129 6.129 0 014.159 6.22 6.207 6.207 0 01-5.736 6.182z" fill="#D7263D"/><path d="M29.793 23.586v45.931c-.002.075-.01.15-.025.224a8.1 8.1 0 01-2.458-5.81V23.586a1.241 1.241 0 012.483 0z" fill="#B30F24"/><path d="M21.103 20.483a1.241 1.241 0 01-2.482 0c0-2.4-1.946-4.345-4.345-4.345a4.176 4.176 0 00-1.44.248 1.145 1.145 0 01-.447.087 42.853 42.853 0 013.823-2.532 6.838 6.838 0 014.891 6.542zM18.62 31.035a1.241 1.241 0 01-2.482 0 6.207 6.207 0 00-6.207-6.207h-.149c-.05 0-.1.012-.149.012a5.566 5.566 0 01-.856-2.135c.19-.189.44-.307.707-.335.148-.021.298-.03.447-.025a8.7 8.7 0 018.69 8.69zM7.448 48.414a1.24 1.24 0 01-1.241 1.241 9.159 9.159 0 01-5.425-1.75 5.942 5.942 0 011.564-1.862c-.062-.062-.111-.124-.174-.186a6.763 6.763 0 004.035 1.315c.686 0 1.241.556 1.241 1.242zm9.559-7.467a9.23 9.23 0 006.216-2.713 1.241 1.241 0 00-1.756-1.755 6.827 6.827 0 01-11.66-4.824 1.241 1.241 0 10-2.483 0 9.32 9.32 0 007.134 9.044 4.358 4.358 0 01-3.549 2.723 1.241 1.241 0 10.277 2.468 6.867 6.867 0 005.821-4.943zm5.213 6.225a8.7 8.7 0 00-8.689 8.69c0 .034 0 .067.006.1a8.629 8.629 0 00-1.247-.1 1.241 1.241 0 000 2.483 6.214 6.214 0 016.207 6.207 1.241 1.241 0 002.482 0 8.69 8.69 0 00-4.893-7.805 6.03 6.03 0 01-.072-.885 6.214 6.214 0 016.207-6.207 1.241 1.241 0 000-2.483z" fill="#EDC881"/><path d="M40.756 60.095a1.241 1.241 0 01-1.208-1.536 6.1 6.1 0 00.176-1.456 6.214 6.214 0 00-6.207-6.206 1.241 1.241 0 010-2.483 8.683 8.683 0 018.442 10.734 1.241 1.241 0 01-1.203.947z" fill="#B30F24"/><path d="M36 67.034a1.241 1.241 0 01-1.241-1.24 8.7 8.7 0 018.69-8.69 1.241 1.241 0 110 2.482 6.214 6.214 0 00-6.207 6.207A1.241 1.241 0 0136 67.034zm-.62-11.172c0 .686-.556 1.241-1.242 1.241a6.84 6.84 0 00-6.828 6.828v-6.306a9.211 9.211 0 016.828-3.004 1.241 1.241 0 011.241 1.241z" fill="#B30F24"/><path d="M49.655 0c-11.374-.006-20.937 8.536-22.21 19.84-1.271 11.302 6.153 21.756 17.245 24.279 1.627.385 3.293.577 4.965.57 1.248 0 2.495-.107 3.724-.322 11.426-1.963 19.453-12.339 18.483-23.891C70.892 8.923 61.248.03 49.655 0zm0 39.724c-9.598 0-17.38-7.78-17.38-17.38 0-9.598 7.782-17.378 17.38-17.378 9.599 0 17.38 7.78 17.38 17.379-.01 9.594-7.786 17.369-17.38 17.38z" fill="#3B97D3"/><path d="M49.655 39.724c9.599 0 17.38-7.78 17.38-17.38 0-9.598-7.781-17.379-17.38-17.379-9.598 0-17.38 7.781-17.38 17.38 0 9.598 7.782 17.38 17.38 17.38z" fill="#FFF4B6"/><path d="M53.38 44.367v6.53h-8.69v-6.778c1.627.385 3.293.577 4.965.57a21.61 21.61 0 003.724-.322z" fill="#090C9B"/><path d="M44.69 50.897h8.69v13.655h-8.69V50.897z" fill="#84B5CB"/><path d="M44.69 50.897h8.69v13.655h-8.69V50.897z" fill="#F0C419"/><path d="M53.38 64.552v3.103a4.345 4.345 0 01-8.69 0v-3.103h8.69z" fill="#090C9B"/><path d="M45.931 18.62a3.724 3.724 0 100-7.448 3.724 3.724 0 000 7.449zm-6.207 3.725a1.241 1.241 0 100-2.483 1.241 1.241 0 000 2.483z" fill="#fff"/><path d="M49.655 40.965c-10.284 0-18.62-8.336-18.62-18.62s8.336-18.62 18.62-18.62 18.62 8.336 18.62 18.62c-.01 10.279-8.34 18.609-18.62 18.62zm0-34.758c-8.913 0-16.138 7.225-16.138 16.138 0 8.913 7.225 16.138 16.138 16.138 8.913 0 16.138-7.225 16.138-16.138-.01-8.909-7.23-16.128-16.138-16.138z" fill="#090C9B"/></svg>