<svg width="62" height="66" fill="none" xmlns="http://www.w3.org/2000/svg"><path d="M47.594.375H2.03c-.776 0-1.406.63-1.406 1.406V64.22c0 .776.63 1.406 1.406 1.406h45.563c.776 0 1.406-.63 1.406-1.406V1.78c0-.776-.63-1.406-1.406-1.406z" fill="#F1F1F1"/><path d="M8.5 46.5h11.25v11.25H8.5V46.5zm0-20.25h11.25V37.5H8.5V26.25z" fill="#FAA231"/><path d="M5.125 9.375H8.5v9h2.25v-9h3.375v-2.25h-9v2.25zM44.5 7.125h-9v2.25h3.375v9h2.25v-9H44.5v-2.25zM16.375 8.25v9a1.125 1.125 0 001.125 1.125h5.625v-2.25h-4.5v-2.25h4.5v-2.25h-4.5v-2.25h4.5v-2.25H17.5a1.125 1.125 0 00-1.125 1.125zm9 0v4.5a1.125 1.125 0 001.125 1.125H31v2.25h-5.625v2.25h6.75a1.125 1.125 0 001.125-1.125v-4.5a1.125 1.125 0 00-1.125-1.125h-4.5v-2.25h5.625v-2.25H26.5a1.125 1.125 0 00-1.125 1.125z" fill="#D7263D"/><path d="M25.375 25.125H42.25v2.25H25.375v-2.25zm0 5.625H42.25V33H25.375v-2.25zm0 5.625H42.25v2.25H25.375v-2.25zm0 9H42.25v2.25H25.375v-2.25zm0 5.625H42.25v2.25H25.375V51zm0 5.625H42.25v2.25H25.375v-2.25z" fill="#D4D4D4"/><path d="M61.375 52.125v1.125l-2.25 9h-2.25l-2.25-9v-1.125h6.75z" fill="#FAA231"/><path d="M54.625 13.875h6.75v38.25h-6.75v-38.25z" fill="#4D4D4D"/><path d="M58 3.75a3.375 3.375 0 013.375 3.375v6.75h-6.75v-6.75A3.375 3.375 0 0158 3.75z" fill="#FAA231"/></svg>