<svg width="72" height="72" fill="none" xmlns="http://www.w3.org/2000/svg"><path d="M49.686 15.89a3.214 3.214 0 012.867-.894c1.465.484.733 4.89.733 4.89a7.136 7.136 0 01-4.593 4.656h-25.2a7.173 7.173 0 01-4.606-4.655s-.72-4.407.757-4.891a3.188 3.188 0 012.855.893h27.187zm-.956 25.783a59.705 59.705 0 01-10.155 2.359H33.61a59.701 59.701 0 01-10.155-2.359 7.248 7.248 0 005.04-6.405H43.69a7.247 7.247 0 005.04 6.405z" fill="#FAA231"/><path d="M49.648 9.931C49.164.473 37.061 0 37.061 0h-1.937S23.021.473 22.537 9.931c-.485 9.458.968 10.404.968 13.715 0 3.31-.968 6.147 2.905 9.458 3.873 3.31 3.873 6.62 7.746 6.62h3.873c3.873 0 3.873-3.31 7.746-6.62s2.905-6.147 2.905-9.458c0-3.31 1.452-4.257.968-13.715z" fill="#FDD7AD"/><path d="M36.092 26.135a1.24 1.24 0 01-1.24-1.242V22.94a4.9 4.9 0 013.04-4.542 4.913 4.913 0 00-1.8-9.46 4.905 4.905 0 00-4.9 4.9 1.242 1.242 0 01-2.482 0 7.392 7.392 0 017.382-7.382 7.384 7.384 0 012.714 14.25 2.397 2.397 0 00-1.472 2.235v1.953c0 .686-.556 1.242-1.242 1.242zm1.242 3.672a1.24 1.24 0 11-2.482 0 1.24 1.24 0 012.482 0z" fill="#090C9B"/><path d="M66.42 59.363C66.42 72 36.091 72 36.091 72S5.766 72 5.766 59.363c0-4.184.844-8.814 3.848-12.004 3.24-3.452 9.223-5.45 13.841-5.686 0 0 0 5.773 8.404 13.966a58.29 58.29 0 004.233 3.724 60.013 60.013 0 004.234-3.724c8.404-8.193 8.404-13.966 8.404-13.966 4.618.236 10.601 2.234 13.841 5.686 3.004 3.19 3.849 7.82 3.849 12.004z" fill="#D7263D"/><path d="M48.73 41.673s0 5.773-8.404 13.966l-2.992-5.984h-1.242a2.508 2.508 0 01-1.178-.298l-.063.298-2.992 5.984c-8.404-8.193-8.404-13.966-8.404-13.966a59.701 59.701 0 0010.155 2.359h4.965a59.705 59.705 0 0010.155-2.359z" fill="#E6E7E8"/><path d="M40.326 55.639a58.222 58.222 0 01-4.234 3.724 59.95 59.95 0 01-4.233-3.724l2.992-5.984.063-.298c.362.195.767.297 1.178.298v-2.483l4.234 8.467z" fill="#090C9B"/><path d="M38.575 44.032v3.14a2.482 2.482 0 11-4.965 0v-3.14a.62.62 0 01.62-.584h3.725c.328 0 .6.256.62.584z" fill="#5053E1"/></svg>