<svg width="138" height="118" fill="none" xmlns="http://www.w3.org/2000/svg"><path d="M5.63 20.29c-.672.267-1.707.097-2.145.466-1.108.636-1.75 1.475-2.13 2.987-.452 2.318-1.05 6.25-.16 8.034 7.335 2.906 12.22 6.984 16.871 10.961-2.918 9.91-5.544 21.065-7.12 30.44-.599 3.933-2.379 9.307-.658 11.731 9.245 6.81 20.3 13.289 32.593 19.467 6.43 3.073 12.235 5.036 18.214 5.956 2.64.308 5.615.483 8.255.791 1.035.171 1.969.576 2.77.645 2.742.073 6.695-.725 9.174-1.325 1.473-.198 3.821-1.134 4.594-1.637.438-.369.51-1.175 1.153-2.014 2.275-4.601 5.572-11.552 7.177-15.885 2.728-6.92 5.194-14.51 7.718-20.96 1.094-3.157 3.223-6.144 3.107-8.43 7.015-3.38 14.57-7.364 21.775-9.265-.073.807-.948 1.544-1.123 2.586-.555 2.554 1.778 8.038 3.178 8.646.7.304 1.24-.3 1.94.005-1.022 2.35-5.207 3.047-6.593 4.96-1.181 1.443-1.634 3.762.102 4.236 1.735.474 1.896-3.088 3.836-3.084-1.693 2.618 1.064 5.213-.191 7.462-.715 1.646-3.325 1.909-4.871 2.914 1.123-2.586 4.536-2.78 4.463-6.444-.496-.775-1.896-1.383-2.537-.544-.584 1.982-2.961 2.347-4.012 4.126-2.538 3.928-3.238 8.095-1.051 10.721-3.413.195-4.872 7.385-3.953 9.74-1.24.3-2.422 1.743-1.999 3.324-5.936 2.172-7.789 12.824-4.844 16.898.802.069 1.415-1.341 1.488-2.148-2.391-2.157-1.268-9.213 2.233-12.164-.715 1.646-1.532 3.526-1.809 4.803-.453 2.319-.978 5.444.451 6.623 1.342-.535.453-2.318.599-3.931.248-1.849.729-3.596 1.882-5.61.408-.94.787-2.452 1.692-2.618-2.305 4.028-3.21 8.665-1.898 12.03-.642.839-3.354 1.337-2.129 2.987.831.641 1.779-.904 2.785-1.305.263.673 1.167.507 1.502.373 3.836-3.084 4.858-9.906 3.546-13.27 1.181-1.443 1.823-2.282 1.503-4.098-.161-.908-1.488-2.323-1.415-3.13.073-.806 1.051-1.779 1.692-2.618.978-.973 2.655-1.641 3.603-3.186 1.896-3.088 2.962-6.817 1.474-9.14 1.342-.535 2.553-1.406 3.763-2.278 2.64-4.162.016-6.42.979-9.914-.365-.438-.73-.876-1.532-.945 1.211-.871 2.786-1.305 3.632-2.614 1.59-2.383 1.036-4.3 1.415-5.812.307-.706.847-1.31.92-2.116.525-3.125-.991-6.02-1.443-8.172 1.371.037 2.683-1.07 3.369-3.287.686-2.217.613-5.881-.451-6.623-.365-.438-1.634-.71-2.334-1.014-.831-.64-1.56-1.516-2.391-2.156l-4.667-2.028c-1.764-1.045-3.427-2.326-5.089-3.607-1.298-.844-2.931-1.553-4.565-2.263-6.795-3.51-14.816-8.671-22.078-12.384-9.13-4.525-16.916-9.584-24.908-14.173-.7-.304-.962-.977-1.998-1.147-1.268-.272-4.185.696-6.096 1.264-4.39 1.167-8.211 2.301-12.032 3.436-2.013.803-4.026 1.605-5.936 2.172-6.403 1.97-13.17 3.501-19.777 5.941-3.252 1.102-6.607 2.44-9.99 3.205-1.809.333-3.253 1.103-4.828 1.536-1.575.434-2.887 1.54-4.696 1.873zm111.935 83.273c.248 2.623-.175 5.513-2.043 9.173-1.487-2.323.016-6.421 2.043-9.173zm3.983-13.639c-.233-.101.307-.705.176-1.042l.466.203c-.204.47-.437.369-.642.839zm.658-7.26c.364.438 1.195 1.079 1.998 1.148.262.673-.147 1.613-.555 2.553-.598-.539-1.823-2.189-1.443-3.7zM3.82 29.564c.146-1.614.19-2.992.773-4.974 5.483 4.617 12.337 9.271 18.053 13.99 2.625 2.258 4.608 5.355 7.335 7.378 2.494 1.921 5.63 3.004 8.254 5.262 2.027 1.718 3.85 3.907 6.212 5.492 7.087 4.756 14.48 8.806 21.83 14.234-.277 1.276-.787 2.452-.962 3.494-7.817-5.631-14.364-10.99-22.18-16.621-4.025-2.866-7.846-6.202-12.337-9.271C21.916 42.175 15.486 34.63 3.82 29.564zm84.87 67.045c-4.974 3.15-11.755 2.16-18.143 2.18-1.137.065-2.64-.308-3.383.766.525 1.345 2.435.778 3.47.948 5.82.013 12.368.901 17.4-1.105l-.818 1.881c-4.725 1.301-10.355 2.768-14.7 2.556-1.138.065-2.436-.778-2.742-.073-.846 1.309 2.362 1.585 2.93 1.553 4.551-.259 8.97-.855 13.025-1.888-.54.604-1.05 1.779-1.46 2.72-3.485 1.001-7.277 2.707-11.39 2.597-1.604-.138-3.675-.478-5.279-.616-4.944-.751-10.792-1.335-16.494-3.532-2.669-.88-5.133-2.23-7.7-3.345-11.229-5.436-22.516-12.016-30.493-18.555C14.475 70.8 17.481 58.133 21.158 45.2c9.683 6.442 18.389 13.856 27.97 20.533 1.53.944 3.091 2.46 4.52 3.64 1.43 1.18 2.756 2.594 3.952 3.673 1.298.843 2.931 1.552 4.36 2.732 2.13 1.484 3.616 3.806 6.198 2.972 10.355-7.239 22.285-10.44 33.428-15.66-1.809 4.803-3.618 9.606-5.091 14.276-3.72.9-7.876 2.168-12.251 1.385-1.269-.272-2.902-.981-4.346-.211-.248 1.848 2.596 1.686 3.631 1.856 4.375.783 8.532-.485 12.28-.813-.51 1.175-1.021 2.35-1.196 3.392-4.055 1.034-9.013 2.233-13.724 1.584-1.604-.138-3.369-1.184-5.046-.515.32 1.816 2.83 1.788 4.331 2.16 4.944.751 9.698.022 13.52-1.113.145 2.858-3.034 3.153-5.514 3.753-3.485 1.001-6.563 1.062-10.675.952-1.371-.037-5.28-.617-5.688.324-.481 1.747 4.404 1.354 4.973 1.322 5.484.146 10.603-.146 14.963-1.884.16.908-.583 1.982-.992 2.922-2.012.803-4.419.596-6.665 1.297-2.144.466-4.288.932-7.03.859-1.37-.037-3.076.06-4.345-.212-1.269-.271-2.465-1.35-2.873-.41-.51 1.176 2.027 1.72 2.493 1.922 6.344 1.359 12.747-.61 17.735-1.239-.365-.437-1.21.872-1.386 1.913zm45.186-40.173c-.102.235-.598-.54-.496-.774.802.069.365.437.496.774zm-1.385-2.558c-5.381-.381-.103 4.706-.891 7.158-1.691-1.852-3.937-5.622-.903-8.775.934.405 1.196 1.078 1.794 1.617zm2.029-11.694c-.044 1.378-.424 2.89-.468 4.268-5.863 1.366-11.23 3.506-16.932 5.78-5.47 2.374-10.574 5.187-16.277 7.46-8.386 3.343-16.54 6.788-24.692 10.233a19.336 19.336 0 00-3.996 2.176c-1.21.872-2.421 1.743-3.661 2.043.51-1.175.452-2.319 1.298-3.628 14.658-5.649 28.105-14.898 43.157-19.538 6.884-3.716 13.797-6.861 21.571-8.794zM17.005 19.642c3.383-.766 6.402-1.97 9.655-3.072 6.169-2.07 12.703-3.704 19.105-5.673 1.911-.567 3.69-1.471 5.703-2.274 5.498-1.803 11.463-3.403 17.093-4.87 8.823 5.23 16.974 10.726 27.037 15.656.466.203-.977.973-.146 1.613 1.298.844 1.444-.77 2.246-.7 5.06 3.036 10.456 5.938 16.085 8.942-3.092 2.01-6.753 4.053-10.181 6.197-.773.503-3.019 1.204-2.26 2.65 1.268.273 2.348-.935 3.223-1.673 2.888-1.54 6.344-3.112 9.436-5.123.438-.369.511-1.175.846-1.309.963.977 2.932 1.553 4.229 2.396-1.808.332-3.456 1.572-5.002 2.578-1.444.77-3.924 1.37-4.172 3.218 1.736.474 3.486-1.001 4.93-1.771 1.444-.77 2.99-1.775 4.565-2.209.438-.369-.058-1.143.408-.94 3.325 2.562 7.423 4.621 11.186 6.814-7.074 2.237-13.725 6.055-21.003 8.762-4.025 1.605-8.386 3.343-12.382 5.52-1.37-.037-3.923 1.37-4.259 1.503-.569.033-.262-.673-1.064-.742-2.246.702-4.011 4.127-6.082 3.786 1.488-2.148 4.244-4.025 4.697-6.343-1.97-.576-3.195 2.245-4.376 3.688-1.517 1.577-3.136 3.388-3.982 4.697-.102.236-3.092 2.01-2.786 1.305 3.063-2.581 5.601-6.509 8.504-9.999.744-1.074 2.523-1.977 1.998-3.323-1.706.097-2.756 1.876-3.836 3.084-1.181 1.443-2.363 2.886-3.442 4.094-2.8 3.254-5.295 5.804-8.124 8.487-1.444.77-3.457 1.572-4.697 1.872 5.5-6.274 11.232-12.447 17.037-19.426.438-.37 2.392-2.315.992-2.923-.933-.405-4.244 4.025-4.886 4.864-3.005 3.725-5.908 7.214-9.277 10.502-2.494 2.549-4.55 4.73-6.68 7.717-.7-.304-1.065-.742-1.532-.945 5.966-6.072 12.078-13.756 18.014-20.4.642-.838 2.188-1.843 1.663-3.19-1.502-.372-2.217 1.273-2.859 2.112-5.834 6.408-11.946 14.093-17.911 20.165-6.46-3.645-12.819-7.525-18.74-11.773-2.361-1.585-4.184-3.774-6.313-5.258-3.792-2.764-7.992-4.589-10.544-7.653 2.247-5.172 5.938-11.114 8.111-15.48.613-1.41 2.713-4.969 1.649-5.71-1.298-.844-3.384 5.236-3.895 6.412-2.173 4.365-5.12 9.233-7.192 13.363-2.566-1.115 4.406-7.588 2.408-8.735-1.531-.945-3.282 5.002-4.464 6.445-.598-.54-1.195-1.079-1.895-1.383.408-.94 1.356-2.484 1.969-3.895.846-1.31 1.896-3.088 1.605-4.333-1.736-.474-2.188 1.844-3.136 3.389-.948 1.544-1.794 2.853-2.305 4.028-4.754-3.741-9.508-7.483-14.597-11.09 2.99-1.776 6.242-2.878 9.626-3.644z" fill="#446FA4"/></svg>