<svg width="100" height="96" fill="none" xmlns="http://www.w3.org/2000/svg"><path d="M10.857 63.792c1.67.624 4.175 1.04 5.01 2.494.418.83.627 1.87 1.044 2.701.835 1.662 1.88 3.74 3.34 5.61 1.253 1.87 2.297 4.156 3.55 5.403 1.67 1.662 4.593 1.662 7.933 1.662 1.67 2.91 3.758 4.987 6.472 7.273 1.879 1.455 3.758 3.117 6.263 3.74 3.131.832 6.68.624 11.064.832 3.132 3.324 10.648 3.116 14.197.415 1.879-1.454 2.714-3.74 3.966-5.61 4.802-1.04 5.637-6.026 6.055-11.429 3.966.208 7.098-.415 9.812-1.662 2.922-1.247 5.428-2.702 5.219-6.65 2.296-.83 4.802-1.662 5.219-4.363.626-2.91-.418-5.403-1.67-7.273 2.923-2.286 1.67-8.104-.209-11.013-.626-.831-1.879-1.454-2.088-2.286-.417-1.246.21-2.7 0-3.74 0-.623-.417-1.662-.626-2.286-1.252-2.7-3.758-4.779-6.263-5.818-1.67-5.61-6.472-9.35-11.9-11.013-.209-2.909-.835-5.402-1.879-7.272-1.67-2.702-5.636-5.819-10.02-5.819-1.044-2.493-1.67-4.987-4.385-6.233-1.67-.832-3.758-.832-6.054-1.04C52.402 0 49.897 0 47.81 0c-2.505.208-4.384 1.455-6.054 2.286-1.88-.831-3.34-1.87-5.637-2.078-6.472-.624-11.065 2.909-12.109 7.896-4.801 2.493-8.768 6.026-9.185 12.675-4.384 1.247-8.142 3.117-8.769 7.896-3.758 3.117-6.471 7.48-6.054 14.338.209 2.494 1.253 5.195 1.461 7.48 1.044 7.897 3.132 11.221 9.395 13.3zm12.109 11.013c2.505-1.247 3.966-3.74 6.054-5.402.209-2.078 2.714 0 3.549.207-1.253 2.078-3.55 3.325-5.22 5.195-.417.416-1.252 1.04-1.252 1.87l.209.208c1.044.208 1.461-.831 2.087-1.454 1.67-1.663 3.967-3.325 5.846-5.195.835.208 1.461.83 2.505 1.039-.417.208-.626.623-.417 1.246-2.297 1.87-4.384 3.948-6.472 5.819-.209.415.209.415.209.83-4.593.832-5.428-2.077-7.098-4.363zm14.196 3.117c-.209.416-.627.831-1.044.831a3.233 3.233 0 00-1.253-1.662c-.417 0-.417.208-.626.208 0 1.246 1.253 1.662.626 2.909.21.415.418.623.835.623-.208.624-.626 1.04-.626 1.87-1.461-1.246-1.461-3.74-4.384-3.324-.209-.416.418-.624.626-.831 2.088-2.079 4.802-4.364 7.098-6.234.627 0 .835.207 1.253.207.209.208 0 .832.418 1.04.835.207 1.043-.416 1.67-.416.209.415-.418.623-.627 1.039-.835 1.039-2.296 2.285-3.131 3.325-.209-.624-.418-.832-.835-.624-.209 0-.209.208-.418.208 0 .416 0 .623.418.831zm5.219-2.286c-1.461.416-1.879 2.494-3.132 2.494-.626-.416.21-1.04.627-1.455 1.252-1.246 2.714-2.701 3.758-3.948 1.67 0 3.131-.208 4.175-.83.209 0 .209 0 .209.207-2.714 2.286-4.802 5.403-7.307 7.896-.835.831-1.462 2.078-2.923 1.87 1.044-2.701 3.967-3.325 5.01-6.234 0 .208-.208 0-.417 0zm10.438 12.052c-.835-.83 1.044-2.078 1.67-2.701 2.297-2.493 5.011-5.818 7.099-8.312v-.623c1.044.415 1.67.831 2.505 1.454-1.462 2.078-3.34 3.948-5.01 5.819-.21 0 .208-1.04-.418-1.04-2.505.832-3.34 3.533-5.637 4.572 0 .208-.209.416-.209.831zm1.044-4.779c.209-.416.835-.623.835-1.662a.447.447 0 00-.417-.416c-1.044.416-1.253 1.87-2.714 1.87.626-1.246 1.67-2.285 2.714-3.532.835-1.247 1.879-2.494 2.922-3.325.627.624 1.253 0 1.462-.623.835 0 1.67 0 2.088.415-1.253 1.663-2.923 3.533-4.385 5.195-1.46 1.662-2.714 3.74-4.592 4.78-.418-1.04.626-1.247.835-1.87.835.415 1.879-.209 1.252-.832zm-1.252-6.65c.835-.83 1.461-.207 1.879.624-.418.831-1.253 1.455-1.67 2.286-.418-.208-1.044-.208-1.88-.208 0-.831.21-1.247.627-1.662.417-.208 1.252 1.454 1.879.415 0-.83-.627-.83-.835-1.454zm-.627 3.949c-.417.415-.626 1.039-1.044 1.039v-1.04h1.044zm3.132-4.78h.626c0 .416-.209.416-.626.416.209-.208 0-.208 0-.415zm3.34 8.312c-1.044.831-1.879 2.286-2.923 2.702.835-1.247 1.88-1.87 2.923-2.91.209 0 0 0 0 .208zM83.3 74.597c-1.462 0-3.132 0-4.385-.207-.417-.624-.626-1.455-.835-2.078 1.044-2.494 3.132-3.74 4.802-5.61 2.088-.832 2.714 1.662.835 1.87-.417 1.038-1.252 1.87-2.296 2.909-.835.83-2.714 1.87-1.462 2.7 2.714-1.038 2.923-4.155 6.055-4.778.626 2.493-3.34 3.116-2.714 5.194zm.626-12.051c-.418 0-.835 0-1.044.207.209-.415.626-.623.835-1.039.418-.207.209.416.209.831zm-5.428 2.493c.209.831-.418 1.039-.626 1.662-.21-.623-.418-1.454-.835-2.078 2.087-2.909 4.592-5.61 6.263-8.935 1.879 5.403-2.923 6.65-4.802 9.351zm-.835 3.532c1.252-1.87 3.758-3.74 5.01-5.61.209.623.418.831 1.253.831-.835 1.455-2.088 2.494-3.34 3.74-1.044 1.04-2.088 2.494-3.34 3.325 0-.831 0-1.662.417-2.286zm8.977-2.7c-.209-.209-.209-.832-.418-1.04.418 0 .627.208 1.044.208 0 .208-.417.416-.626.831zm2.505 1.454c-.209.415-.626.623-1.044 1.039-.626.207-.417-.416-.835-.624.626 0 1.253-.207 1.88-.415zm-1.461 3.948c-.21.83-1.253.83-1.88 1.454.418-.415 1.253-2.078 1.88-1.454zm-3.132 3.117c-.209-.416.626-.832.835-1.247.209.208 0 .623.418.623 1.879 0 2.505-2.078 4.593-1.662-1.462 1.247-3.758 1.87-5.846 2.286zM36.118 2.494c1.044.207 2.088.623 3.131 1.038 1.044.416 2.088 1.247 3.132 1.04.835 0 1.67-1.04 2.297-1.455 1.252-.623 2.505-1.04 5.01-.831.417 1.454 2.088 1.87 2.505 3.324-.835.416-2.088.208-2.296.832-.21 1.246 1.67.207 2.922.415.418.624.627 1.247 1.044 1.87-.626.624-2.505-.208-2.505.831 0 1.247 2.505.624 3.132.208.417.208.417.831.626 1.455-2.088.208-1.67 1.87.626 1.246 0 .416.209.416.209.832-2.297-.416-1.67 1.87.417 1.247.836 1.662.418 4.155 1.67 5.402.836.208 1.253-.208 1.67-.623 0-1.87-.625-3.325-.834-4.78.626 0 1.252 0 1.461-.623 0-1.247-1.67-.415-1.879-.623 0-1.247 2.088 0 2.088-1.04-.209-1.246-1.67-.415-2.505-.415 0-.415-.21-.415-.21-.831.627 0 1.254 0 1.462-.623 0-.832-1.044-.624-1.879-.624 0-.415-.417-.415-.417-.83.626-.417 1.67 0 1.67-.832.209-1.04-1.461-.623-2.297-.208-.626-.623-1.043-1.662-1.67-2.493.835-.416 2.714 0 3.132-.832-.626-1.246-2.505-.415-3.55-.207-.208-.624-.626-1.247-1.252-1.87 2.923 0 7.098 0 8.56 2.077 1.044 1.663.835 4.78 2.922 5.195.835.208 1.253 0 1.88 0 2.296.208 4.383 2.078 5.845 3.325 1.879 1.87 2.714 4.78 2.923 7.688 0 1.247 0 1.663 1.043 2.286.836 0 1.67 0 2.297.208 3.131 1.247 5.845 4.156 7.516 6.441-.418.624-.418 1.663 0 2.494-.627 0-.835.208-1.044.415 0 .624.209.624.626.832-.209.83-.418 1.87-.835 2.493-.626-.208-.835-.831-1.67-.831-.209 0-.209.208-.418.416.209.83.835 1.038 1.462 1.454-.21.416-.627 1.247-.835 1.455-.835 0-1.044-2.91-2.297-1.87.209 1.246.626 2.077 1.67 2.493-.835 1.247-2.505 2.078-4.593 1.662 0-1.039.21-3.74-.835-3.74-1.252-.208-.417 2.91-.209 3.74-.835-.207-1.46-.415-2.296-.623.209-.623.835-3.325-.209-3.533-1.044 0-.626 1.663-.626 2.91-.835-.208-1.253-.832-1.461-1.87-1.253-.832-2.088.415-2.088 1.246 0 1.87 3.34 2.701 4.384 3.533-.209.83-.209 2.078.626 2.078.627 0 .418-1.04.418-1.663 1.044.208 1.879.416 3.131.416.21.208.21.83.627.83.626 0 .835-.415.626-.83 1.67 0 2.296-1.247 3.967-1.455 0-.83.208-1.87.835-2.078.417 0 .835.831 1.461.624.209 0 .209-.208.418-.416 0-.831-.835-.623-.835-1.454.417-.624.835-1.663 1.043-2.286.21.623 1.253.831 1.462.208-.418-.831-.627-1.87-.835-2.494 2.505.208 5.845 3.533 6.054 6.234.209 1.454-.418 3.325.209 4.78.209.83 1.252 1.246 1.67 1.661a8.763 8.763 0 012.088 7.065c-.21 1.455-2.088 1.87-1.88 3.74 0 .832.836 1.247 1.253 2.286.627 1.663 1.044 4.78-.626 6.026-1.253.831-3.34.624-3.967 2.078 0 .831 0 1.663-.208 2.286-.835-.416-1.67.416-2.297-.208.418-.623 1.253-.623 1.253-1.662 0-.208-.209-.208-.209-.416-.626-.207-1.253.624-1.044.416 0-.208.418-.416.418-.624 0-.623-.418-.207-.418-.623-.209-.416.418-.831 0-1.039-.835-.415-1.252.416-2.088.416.418-1.247 1.67-1.455 2.088-2.494-.626-1.039-2.714-.208-3.758-.208 0-.415.21-.623.21-1.246.834-.208 1.878 0 2.296-.831 0-1.04-1.462-.208-2.297-.416 0-1.247 0-2.494.418-3.325 0-.415-.627-.415-.627-.623 0-1.247.21-2.91-.626-3.325-.835 0-1.044 0-1.879-.208-2.296 2.702-3.966 6.026-6.472 8.52 0-1.247 0-2.494.21-3.325.625 0 1.46 0 1.67-.415 0-.624-.418-.624-.836-.832 1.044-1.454 2.505-3.324 3.758-4.987.418-.83 1.461-1.662.835-2.285-1.461.207-1.879 1.87-2.505 2.909-.835 1.039-1.462 2.078-2.297 2.909.835-3.948 3.132-6.234 6.681-7.48 0 .415-.418.623-.418 1.246 0 .208.21.208.21.416 1.252.207 1.043-1.04 1.46-1.87.418-.208 1.253 0 1.88-.208-.21.623-.627.623-.627 1.454 0 .208.209.208.418.416 1.044 0 1.252-1.662 2.087-.623.418.415-.417.415-.208 1.038 0 .416.835.416 1.252.208.835 1.455 0 6.65 2.088 6.234 1.67-.208.209-4.571.209-6.234.835-.415 2.087-2.493.835-2.701-.835 0-.627.831-1.044 1.247-.418 0-.418-.416-.835-.624.209-.83 1.044-1.246 1.044-2.285 0-.208-.21-.208-.418-.416-1.044 0-1.044 1.039-1.461 1.87-.209-.208-.627-.415-.835-.623.209-.831 1.044-2.701 0-2.701-.835 0-.627 1.246-1.044 2.077-.418-.207-1.044-.207-1.879-.207.418-2.078-1.67-2.078-1.253 0-.835 0-1.879 0-2.296.415-.209-1.039-2.088-1.246-1.462.416-.417.208-.626.208-.835.623-.626 0-.417-.415-1.043-.415-.627.207.208 1.454-.835 1.246.208-.415.417-1.246-.21-1.246-.834.207-1.043 1.246-1.46 1.87-.418.623-.836 1.454-1.253 2.078-.209-.208-.835-.416-1.044 0-.209.623.417.83.417 1.246-.835 1.247-1.878 2.494-2.713 3.74-.627-.623 1.043-2.493.626-3.74l-.418-.207c0-.624 1.044-1.87 1.462-2.286.417-.623 1.252-2.286.208-2.286-.417 0-.626.208-.626.831-1.044 1.455-1.879 3.325-3.131 4.572-.21-.831.626-1.455.626-2.494 0-.208-.209-.208-.418-.415-1.67.207-1.252 2.701-2.087 3.948-.627-.208-.418-1.247-.418-1.663.626-1.87 3.55-3.74 3.758-6.026 0-.207-.209-.207-.418-.415-1.043.208-1.252 1.247-1.879 1.87-.417.831-1.043 1.455-1.46 2.078-.21-2.078 1.252-3.74 1.878-5.61 0-.208-.209-.208-.418-.416-1.67.623-2.296 2.286-3.34 3.74 0-1.454.418-3.117.835-4.571.209-.831 1.462-1.663.627-2.494-1.88.831-1.88 3.74-2.506 5.819-.208-.416-.417-.832-.835-1.04.418-2.7.835-5.402 1.67-7.688-.208-.623-1.043-.623-1.879-.623 0-.624.418-.831.418-1.455.626 0 1.253 0 1.253-.623 0-.416-.418-.623-.835-.623.208-.624.417-1.04.626-1.663.417.208 1.252 1.247 1.67.416 0-.831-.626-.831-1.044-1.455.209-.623.835-1.039 1.462-1.247.626.208.626.832 1.46.624.418-.623-.208-1.04-.417-1.455.835-.623 2.506-.207 2.506-1.662 0-1.87-2.297-1.039-3.55-.416-.208-.623-.835-1.662-1.46-.83 0 .83.208 1.038.626 1.662-.21.415-.627.415-1.044.83-.418 0-1.253-.623-1.67 0-.21.624.417.624.626 1.04-.418.207-.626.623-.835 1.039-.627 0-.418-.624-1.044-.624-1.044.416 0 1.455.417 1.87 0 .624-.417.832-.626 1.455-.209 0-.417-.208-.626-.208-1.253 1.87-1.462 4.78-2.088 7.48-.835 0-.626-1.038-.626-1.662.209-2.701 1.879-5.402 2.505-7.896 0-.208-.209-.208-.417-.415-1.253.415-1.462 2.078-2.088 3.324-.627 1.247-1.044 2.702-1.253 3.948-.835-1.87 0-3.74.418-5.402.208-.831 1.044-1.87.417-2.701-1.043.207-1.043 1.454-1.461 2.285-.209 1.04-.626 2.078-.835 2.91-.626-.209-.418-.624-.209-1.04 0-2.493.835-4.363 1.879-6.026 2.505.416 4.175 0 5.22-1.454 1.043-1.455 2.296-3.948 2.504-5.61v-2.079c.627.208 1.462 0 1.67-.623 0-.208-.208-.415-.208-.623-.627-.208-.835.207-1.253.415-.417-1.247.835-.83.835-1.662 0-.623-.417-.623-.835-.623 0-.416-.209-1.247.209-1.663.835-.415 1.044.416 1.67.208 1.044-1.247-1.044-1.87-1.879-1.039.418-.831-2.505-3.532-2.714-.208-.835 0-1.67 0-1.67.624 0 1.039 3.34.208 2.505 2.493-.626 0-2.296-.623-2.296.416-.209 1.247 2.714 0 2.296 1.87-1.461-.623-2.505 1.662-.209 1.247.418.415.21 1.454 0 1.87-1.46-.831-2.087 1.454-.208 1.039 0 .83-.835.83-1.253 1.039-.209.623.209.623.209 1.039-.418 1.662-2.505 2.078-4.593 1.454.417-1.454-1.253-1.87-1.253-.415-.417-.208-1.043-.416-1.67-.624 0-.83 1.462-1.246.627-2.285-1.253-.208-1.044 1.246-1.88 1.662-.834-1.247.627-2.078.836-3.325 0-.208-.21-.208-.418-.415-1.044 0-1.252 1.246-1.67 1.87-.626 0-.835-.624-1.044-1.04.209-1.246 1.253-1.662 1.462-3.116 0-.208-.21-.416-.21-.416-1.252.208-1.252 1.455-1.878 2.078-.418 0-.418-.623-.626-.83 0-1.663 2.087-2.079 1.461-3.326-1.461 0-1.67 1.04-2.297 2.078-.417-.83-1.043-1.039-1.043-1.87 0-1.247 2.714-2.078 1.879-3.117-1.67 0-1.67 1.247-2.714 1.663-.835-2.078-1.044-4.987-2.297-6.858-.835-.207-1.252.208-1.461.624 0 .831 0 1.247.209 1.87-1.253 0-2.506-.208-2.506.623 0 1.04 1.67.624 2.923.624.209.623.418 1.247.626 2.078-1.043.208-3.131.208-2.922 1.039.208 1.246 2.087-.208 3.131-.208 0 .623.418.831.418 1.454-.835.416-2.088 0-2.297.831 0 1.247 1.88.416 2.923.208.209.624.626 1.04.835 1.87-.417 0-.835.208-1.253.208-.417 0 0-.83-.626-.83-1.044.207-1.252 1.661-1.67 2.908-.209 1.04-.209 2.078-.626 3.117-.627-.208-1.044-.831-1.462-1.039-.209-2.493.627-4.364 1.253-6.234 0-.207-.209-.207-.418-.415-1.878.623-1.67 3.532-2.087 5.818a1.599 1.599 0 00-1.044-.416c.417-.415.209-.83.209-1.662.208-1.662 1.252-3.74 1.044-4.571-.21-.832-1.462-.624-1.253.83-.626 1.455-1.253 3.325-1.044 4.988-.835-.208-1.67-.624-2.505-.831.835-1.663 1.044-4.364 1.67-6.442 0-.415-.835-.208-1.044-.415-1.044-4.988-5.22-6.65-11.69-6.027 1.043-4.155 4.592-6.649 10.02-6.025zm38.83 57.558c-.834-1.039-.208-3.117.21-3.948.417 1.039-.21 2.701-.21 3.948zm-3.13-3.117c-.418-.208-.627-.831-1.044-1.039.417-.831 1.252-1.454 1.67-2.078 0 .831-.418 2.078-.627 3.117zm-6.264-17.039v-.831h.627c-.418.208-.21.623-.627.831zm-2.087 3.325c-.627-.208-.835-.831-.627-1.663h.418c.209.208 0 1.04.209 1.663zM49.062 21.61c-1.67.623-1.462 3.116-2.088 4.779-.418-.208-.835-.416-1.253-.832.418-1.454.627-3.116 1.044-4.571a7.82 7.82 0 002.505-.416c.627.208.835 1.04 1.044 1.663-.417.208-.626.415-1.044.415.21-.207.21-.83-.208-1.039zm-.418 2.493c1.044-.208 1.67-.623 2.505-.831.209.415 0 .83-.209 1.247-1.043 0-2.087 1.454-.417 1.454-.209 1.247-.835 2.286-1.044 3.532-.417-.623-1.044-1.454-1.67-2.077.209-1.247.626-2.286.835-3.325zm1.879 5.818c0-.623.417-1.454.626-2.286.418-1.246.418-2.285 1.044-2.7 1.879 1.038-.835 4.363-1.044 6.648-.835.208-.626-1.038-.626-1.662zm3.131-1.87c.836-.208 1.462-.623 2.088-.208-.835 1.455-1.461 3.117-1.67 4.987-.626 0-1.044-.415-1.67-.623.209-1.662 1.044-2.701 1.252-4.156zm3.132.623c.835.208 1.461-.207 2.088.208-.835 1.87-1.67 3.533-1.67 6.026-.836-.416-1.253-1.039-2.088-1.454.417-1.87.835-3.533 1.67-4.78zM35.283 20.78c-.418 0-.626-.208-1.044-.208 0-2.493.626-4.155 1.253-6.026 1.461 2.078.208 4.364-.21 6.234zM24.009 10.597h.21c3.757-.623 8.976-.207 10.646 2.078.21.416.418 1.04.627 1.455-.418 0-.627.623-.835.831-.835 1.87-1.253 2.91-1.462 7.065h-1.044c.21-2.078.418-3.325.835-4.572.418-1.246 1.253-2.7.627-3.74-1.044.208-1.67 1.455-1.88 2.286-.417 1.247-1.252 2.701-1.252 3.74v1.04s-1.044.415-1.461.207c-.209-.623.417-.831.626-1.247-.209-.623-.417-.83-.209-1.87.418 0 1.88 1.04 2.088-.208-.209-.83-1.253-.623-1.67-1.246 0-1.04 1.461-2.286.417-3.117-.835.415-2.087.623-2.505 1.247-.417 0-.209-.624-.835-.624-1.044 1.247-1.252 3.325-2.505 4.364-.418-1.455.418-2.91.626-4.156 0-.208-.209-.208-.209-.416-2.087.416-1.67 3.533-1.878 6.026-.418 0-.627-.207-1.044-.207-.627-1.247.835-4.364-.418-4.572-1.461.623-1.252 3.74-1.252 4.987-.835.208-2.088.208-3.132.208.418-3.948 3.55-8.104 6.89-9.559zm3.55 7.065l.626-.623c.417.208 0 .623 0 1.039-.209-.208-.418-.208-.627-.416zm.626 4.156c-.627 0-1.044-.415-1.67-.623 0-1.04.208-1.87.417-2.701 1.253.207.835 2.285 1.253 3.324zm-10.23 24.727c1.044 0 1.462 1.04 2.297 1.663-.418.623-2.088.623-2.088 1.454 0 1.455 2.296-.207 2.923-.623.835.416 1.044 1.454 1.879 2.078-.627.623-1.67.831-1.88 1.87.836 1.247 1.88-.623 2.506-.831.626.831 1.253 1.662 1.879 2.286-.418.623-2.297 1.246-1.253 2.285 1.044 0 1.044-1.039 2.088-1.246 1.252 1.246 3.131 2.493 4.593 3.948.626.623 1.044 2.078 2.087 2.078 2.506 0 .21-2.91-.626-3.74-1.044-1.04-2.296-1.663-2.923-2.494.418-.208 1.253-.831.627-1.455-.835 0-1.253.208-1.67.624-.418-.416-1.044-.832-1.253-1.455.418-.623 1.67-.208 1.67-1.039 0-1.247-1.879-.416-2.505.208-.418-.623-.835-1.247-1.462-1.87.21-.831 1.462-.624 1.462-1.247 0-1.247-1.67-.208-2.297.208-1.461-2.286-3.757-4.364-6.471-5.818-1.462-.832-2.714-1.455-5.22-1.247-1.67.208-3.549 1.247-5.01 1.87-1.67.831-2.923 1.87-4.175 2.493-1.67-5.402-.627-10.805 1.878-14.13.836-1.038 2.088-1.454 2.923-2.285.209-.208.209-1.04.418-1.662.417-2.702 2.088-3.948 4.384-4.78 0 1.247-.626 1.87-.626 3.325-2.088.208-1.88 2.286 0 1.247 0 1.87 1.043 3.117 1.461 4.571-.626.208-2.088.831-1.253 1.662 1.044 0 1.253-.623 2.088-.83.835.623 1.253 2.908 2.505 3.116 1.253.208 1.67-.415 1.462-1.454 0-.416-.418-.624-.835-.832-.835-1.246-1.67-2.909-2.506-3.948 0-.415.418-.415.418-.83 0-.416-.626-.624-1.044-.624 0-.416-.209-.623-.209-1.247 1.044 0 2.088-1.662.21-1.454.208-1.04.417-2.494 1.043-3.533 3.34-.831 6.054-.623 8.977.208 1.253.415 2.505 1.454 3.758 1.247 1.252-.208 1.879-1.04 3.131-1.247 2.714-.208 4.593.208 6.68.831 2.506.831 3.55 1.662 5.429 3.117 1.879 1.454 3.758 2.493 4.802 4.987.208.416 0 .623.208.831.627.831 2.297.623 2.923 1.662.418 0 .418-.207.835-.207 2.088 1.246 4.384 2.078 5.22 4.571.417.831.208 2.078.626 2.91.417.623 1.461 1.246 2.296 1.87A18.92 18.92 0 0164.093 48c.626 1.039 1.252 1.87 1.67 3.117 1.461.831.626 3.325 1.461 4.571.627 1.04 1.88 2.078 3.132 3.117.626.624 1.67 1.247 2.296 2.078.627.831 1.044 1.87 1.462 2.91.417.83 1.252 1.87 1.461 2.908.209 1.455-.835 2.286-.626 4.364.417 2.909 2.505 4.364 2.296 8.104-.209 3.117-1.252 6.234-3.549 7.273-1.879-.416-1.879.83-2.505 1.87-1.253 2.909-4.175 5.402-7.933 5.818-1.88.208-3.55.416-4.802-.208-.626-.415-1.461-.831-2.505-.831h-.835c-.835-2.078-1.253-2.286-1.879-2.91.626-.623.835-1.662 1.67-1.87-.417.624-1.461 1.455-.417 2.079 1.043-.832 1.67-1.87 2.505-2.702 2.505-2.493 5.219-5.195 7.515-8.104 0-.415.418-.415.21-.83.626 0 1.043-.416 1.252-.624 0-.623 0-1.247-.418-1.662-2.296-2.702-8.768-2.702-12.943-2.286-2.923 2.078-5.428 5.818-8.351 8.727-.835.831-3.55 2.494-2.296 3.325 2.714-1.663 4.384-4.364 6.68-6.234 0 .623 0 1.247-.209 1.662-.626 0-1.252 0-1.67.416-.209.623.209.623.209 1.039-1.253 1.662-3.132 2.701-4.384 4.571 0 .208.208.416.417.624 2.088-1.247 3.55-3.117 5.22-4.78.208.208 0 1.04.208 1.247-.835.624-1.461 1.455-2.296 2.286-.835.623-2.088 1.247-2.088 2.493 0 .208.209.208.418.416 2.087-.623 2.296-3.117 4.801-3.325 0 1.247-1.461 1.247-1.461 2.702.209.623.835.207 1.67.207.418 0-1.044 1.247.209 1.663.835 0 .835-.831 1.252-.831.21 1.039 1.044 1.662 1.253 2.285-3.758 0-7.515-.415-10.02-2.078-1.045-.623-1.88-1.662-2.924-2.285-.835-.624-2.505-1.455-2.087-2.91.417.208.417 1.04.835 1.04.835 0 1.252-.208 1.879.207 1.879-1.246 3.34-4.156 4.802-5.402.417-.416.835-.208.835-.624 0-.623-.627-.623-1.044-.623-1.044.208-2.088 2.286-2.714 3.117l-1.462 1.454c-.417.416-.835 1.247-1.67.832-.209-.416.627-1.04 1.044-1.247 3.131-2.91 6.054-6.65 9.186-9.766.209-.624-.418-.416-.418-.832 2.923-1.87 6.263-3.324 6.055-8.311.626-.416 1.878-1.455.835-2.286-.627 0-.835.416-1.044 1.039 0-.208-.627-1.247-.627-1.662 0-.624 1.88-3.74.418-3.74-.835 0-.626 1.038-.835 1.87-.835-4.364-3.758-6.65-5.428-10.39.835 0 2.088-1.455 1.253-2.286-.835 0-1.044.831-1.253 1.455-.626-.208-.626-1.04-1.253-1.247 0-.623 1.044-1.455.21-1.87-.836-.208-.627.623-1.253.831-.21-.831-1.253-.831-1.462-1.87-.209-1.04 1.044-2.078.209-2.91-.835 0-1.044.832-1.253 1.663-2.296-1.454-3.966-3.74-6.054-5.195-.418 0-.626.208-.626.624 1.044 2.078 2.922 3.117 4.593 4.571-.627.208-1.88 1.04-.835 1.87.835-.623 1.67-.623 2.713-.207.418.83-1.878 2.7-.417 2.909.835 0 .417-.832 1.253-1.04.626.208.835.832 1.044 1.455-.21.623-1.253.416-1.044 1.04.208.622.835.415 1.67.207.417 1.662 1.67 2.701 2.505 4.156-.209.208-.418-.624-1.044-.416-.209 0-.209.208-.417.208 0 1.454 1.252 1.454 2.505 1.662.417.831.835 1.663 1.461 2.286-.626.208-.835-.623-1.67-.623-.209 0-.209.207-.417.207 0 1.455 1.46 1.455 2.296 2.078.209 1.04.626 1.87.835 2.91-.626-.208-1.67-1.247-2.296-.416.208 1.039 1.879 1.454 2.505 1.247 1.252 2.493.417 5.61-1.67 6.649-.627 0-.418-.623-1.044-.416-.627.208 0 1.04-.209 1.247-1.044.624-1.461-.623-2.505-.623-.209 0-.209.208-.418.208 0 .83.418 1.039.835 1.454-.417.416-1.252.623-2.087.623-.835-.415-.835-1.246-1.88-1.246-.834.208 0 1.246 0 1.246-.625 0-1.043-.207-1.67-.207-.834-.624-1.252-2.91-2.087-2.91-1.044 0-.209 1.87.417 2.286-.626.208-1.252-.415-1.878-.415-1.253-.831-.627-4.364-2.506-3.74 0 1.246.627 2.077.835 2.909-.835-.208-1.879-.832-2.922-1.04-.627-.83-.418-3.324-1.462-3.324-1.252-.208-.208 1.662-.208 2.493-1.253-.415-2.297-1.246-3.55-1.87.627-2.078-1.46-3.532-1.252-.83-.418-.624-1.462-.624-2.088-1.663-.835-1.247-.417-4.364-1.461-4.572-1.044 0-.627 1.663-.418 2.494-.208.208-.626-.416-1.044-.831-.208-.208-.835-.624-1.043-1.04-.627-1.038 0-3.947-1.253-3.74-1.044.208 0 1.663-.209 2.494-1.044-.623-2.923-2.493-4.175-3.532-.418-.416-1.044-1.04-1.462-1.04.21-2.077-.626-1.454-.417-.415 0 .623.835 1.039 1.461 1.454 0 .416-.417.208-.417.832.417 1.039 1.67.83 2.505 1.246 1.044.416 1.67 1.455 2.296 2.078-.835-.207-2.087-.415-2.087.416 0 1.247 2.505.416 3.758.831 1.043.416 1.043 1.247 1.67 1.662-1.044 0-1.88-.207-1.88.624-.208 1.247 1.67.415 3.132.623 1.044.208.835 1.04 1.67 1.04 0 .415-.417.415-.417.83.418.831 1.253.416 1.879.416 1.044.208 1.461 1.247 2.505 1.247-.209.207-.835.207-.835.623-.209.623.418.416.418.831-1.67 1.663-3.55 3.325-5.22 5.195-.417-.623-1.043-1.247-1.461-2.078 1.253-.415 2.088-1.662 2.923-2.701.417-.624 1.67-1.455.835-2.078-1.88.831-2.505 3.117-4.384 3.948-1.88-2.286-1.67-5.818-4.176-7.688-2.714-2.078-6.68-1.87-9.394-3.948-2.714-2.078-2.923-5.403-3.55-9.974.836-1.04 2.506-2.286 4.176-3.325 1.67-.831 3.758-1.87 5.22-2.078 1.67-.208 2.504.831 3.757 1.455-.209.415-1.044.415-1.044 1.246.418 1.455 1.253 0 1.88-.208z" fill="#446FA4"/></svg>